<?xml version="1.0" encoding="UTF-8" standalone="no"?>
<!-- Created with Inkscape (http://www.inkscape.org/) -->

<svg
   width="512"
   height="512"
   viewBox="0 0 135.46666 135.46667"
   version="1.1"
   id="svg5"
   xmlns="http://www.w3.org/2000/svg"
   xmlns:svg="http://www.w3.org/2000/svg"
   xmlns:rdf="http://www.w3.org/1999/02/22-rdf-syntax-ns#"
   xmlns:cc="http://creativecommons.org/ns#">
  <defs
     id="defs2" />
  <g
     id="layer1">
    <path
       style="fill:#888888;fill-opacity:1;stroke:#000000;stroke-width:0;stroke-linecap:butt;stroke-linejoin:miter;stroke-miterlimit:4;stroke-dasharray:none;stroke-opacity:1"
       d="m 101.60001,103.71666 12.7,4.23333 V 48.683332 L 67.733334,31.749998 v 8.466667"
       id="path9196" />
    <path
       style="vector-effect:non-scaling-stroke;fill:none;stroke:#000000;stroke-width:0.00070115;stroke-linecap:butt;stroke-linejoin:miter;stroke-miterlimit:4;stroke-dasharray:none;stroke-opacity:1;-inkscape-stroke:hairline"
       d="M 76.200001,31.749998 V 44.449999"
       id="path8953" />
    <path
       style="vector-effect:non-scaling-stroke;fill:#aaaaaa;fill-opacity:1;stroke:none;stroke-width:0.00070004;stroke-linecap:butt;stroke-linejoin:miter;stroke-miterlimit:4;stroke-dasharray:none;stroke-opacity:1;-inkscape-stroke:hairline"
       d="M 114.30001,107.94999 127,103.71666 V 44.449999 l -46.566666,-16.933334 -12.7,4.233333 46.566676,16.933334 v 59.266658"
       id="path8475" />
    <path
       id="path3068"
       style="vector-effect:non-scaling-stroke;fill:none;stroke:#000000;stroke-width:0.00070004;stroke-linecap:butt;stroke-linejoin:miter;stroke-miterlimit:4;stroke-dasharray:none;stroke-opacity:1;-inkscape-stroke:hairline"
       d="m 114.30001,48.683332 12.7,-4.233333 m -12.7,63.499991 -12.7,-4.23333 M 67.733334,31.749998 v 8.466667 m 0,-8.466666 46.566676,16.933333 v 59.266658 l 12.7,-4.23333 V 44.449999 L 80.433334,27.516665 Z" />
    <path
       style="fill:#888888;fill-opacity:1;stroke:#000000;stroke-width:0;stroke-linecap:butt;stroke-linejoin:miter;stroke-miterlimit:4;stroke-dasharray:none;stroke-opacity:1"
       d="M 8.4666682,52.916665 59.266667,35.983332 110.06667,52.916665 59.266667,69.849998 Z"
       id="path6926" />
    <path
       style="vector-effect:non-scaling-stroke;fill:none;stroke:#000000;stroke-width:0.00070115;stroke-linecap:butt;stroke-linejoin:miter;stroke-miterlimit:4;stroke-dasharray:none;stroke-opacity:1;-inkscape-stroke:hairline"
       d="m 59.266667,35.983332 v 12.7"
       id="path7678" />
    <path
       id="path1087"
       style="vector-effect:non-scaling-stroke;fill:#cccccc;fill-opacity:1;stroke:#000001;stroke-width:0.00070115;stroke-linecap:round;stroke-linejoin:round;stroke-miterlimit:4;stroke-dasharray:none;stroke-opacity:1;-inkscape-stroke:hairline"
       d="m 72.94234,72.096479 -2.08155,-2.906081 1.29714,-3.1139 3.51285,-0.576446 v -5.859081 l -3.50949,-0.586543 -1.29714,-3.120621 2.07146,-2.889313 -4.14301,-4.142923 -2.89267,2.068109 -3.11061,-1.28712 -0.58961,-3.51277 -5.85579,0.0034 -0.57986,3.509401 -3.12401,1.287129 -2.89271,-2.068109 -4.14301,4.142923 2.0715,2.889313 -1.28379,3.120604 -3.526239,0.589938 -0.0033,5.855737 3.532949,0.57653 1.28379,3.113892 -2.08155,2.906073 4.14299,4.142914 2.90278,-2.08486 3.124,1.293824 0.57658,3.519474 5.85579,0.01018 0.58641,-3.529521 3.1106,-1.293833 2.89941,2.081525 z M 62.78596,65.922318 a 4.8541178,4.8540307 4.3424602 0 1 -0.084,0.08401 4.8541178,4.8540307 4.3424602 0 1 -6.86479,0 4.8541178,4.8540307 4.3424602 0 1 0,-6.864657 4.8541178,4.8540307 4.3424602 0 1 6.86479,0 4.8541178,4.8540307 4.3424602 0 1 0.084,6.78085 z" />
    <path
       style="fill:#aaaaaa;fill-opacity:1;stroke:none;stroke-width:0.264583px;stroke-linecap:butt;stroke-linejoin:miter;stroke-opacity:1"
       d="M 8.4666682,52.916665 V 107.94999 L 59.266667,124.88332 110.06667,107.94999 V 52.916665 L 59.266667,69.849998 Z"
       id="path4988" />
    <g
       id="g2448"
       style="vector-effect:non-scaling-stroke;stroke-width:0.00264583;stroke-miterlimit:4;stroke-dasharray:none;-inkscape-stroke:hairline"
       transform="translate(-8.4666648,6.35)">
      <path
         id="path2343"
         style="vector-effect:non-scaling-stroke;fill:none;stroke:#000000;stroke-width:0.00264583;stroke-linecap:butt;stroke-linejoin:miter;stroke-miterlimit:4;stroke-dasharray:none;stroke-opacity:1;-inkscape-stroke:hairline"
         d="m 16.933334,46.566666 50.8,-16.933333 50.799996,16.933333 M 67.733333,118.53333 V 63.499999 m -50.8,38.100001 50.8,16.93333 L 118.53333,101.6 V 46.566666 L 67.733333,63.499999 16.933334,46.566666 Z" />
    </g>
    <path
       style="vector-effect:non-scaling-stroke;fill:#6062cc;fill-opacity:1;stroke:#000000;stroke-width:0.00070115;stroke-linecap:butt;stroke-linejoin:miter;stroke-miterlimit:4;stroke-dasharray:none;stroke-opacity:1;-inkscape-stroke:hairline"
       d="m 59.266668,44.449999 -12.7,-12.7 h 8.466667 L 50.800001,10.583333 h 16.933333 l -4.233333,21.166666 h 8.466667 z"
       id="path7919" />
  </g>
  <metadata
     id="metadata833">
    <rdf:RDF>
      <cc:Work
         rdf:about="">
        <cc:license
           rdf:resource="https://mit-license.org" />
      </cc:Work>
    </rdf:RDF>
  </metadata>
</svg>
