<svg viewBox="0 0 135.467 135.467" height="512" width="512" xmlns:xlink="http://www.w3.org/1999/xlink" xmlns="http://www.w3.org/2000/svg"><defs><linearGradient id="d"><stop style="stop-color:#b5b500;stop-opacity:1" offset="0"/><stop style="stop-color:#9c8b00;stop-opacity:1" offset="1"/></linearGradient><linearGradient id="c"><stop style="stop-color:#93744f;stop-opacity:1" offset="0"/><stop style="stop-color:#aa875c;stop-opacity:.99346405" offset="1"/></linearGradient><linearGradient id="b"><stop style="stop-color:#c19a6b;stop-opacity:1" offset="0"/><stop style="stop-color:#a7855c;stop-opacity:1" offset="1"/></linearGradient><linearGradient id="a"><stop style="stop-color:#cccc89;stop-opacity:1" offset="0"/><stop style="stop-color:#abab73;stop-opacity:1" offset="1"/></linearGradient><linearGradient xlink:href="#a" id="g" x1="88.155" y1="61.077" x2="50.52" y2="71.549" gradientUnits="userSpaceOnUse"/><linearGradient xlink:href="#a" id="e" x1="78.116" y1="58.921" x2="31.887" y2="74.641" gradientUnits="userSpaceOnUse"/><linearGradient xlink:href="#b" id="h" x1="97.201" y1="85.356" x2="41.246" y2="95.187" gradientUnits="userSpaceOnUse"/><linearGradient xlink:href="#c" id="i" x1="11.642" y1="88.9" x2="62.442" y2="88.9" gradientUnits="userSpaceOnUse"/><radialGradient xlink:href="#d" id="f" cx="17.836" cy="7.95" fx="17.836" fy="7.95" r="12.7" gradientTransform="matrix(1 0 0 1.33335 0 -5.645)" gradientUnits="userSpaceOnUse"/></defs><path d="m117.475 107.95 6.35-2.117V48.154c-3.175.53-4.777-3.279-6.35.53 0 0-4.233 50.8 0 59.266z" style="fill:#c19a6b;fill-opacity:1;stroke:none;stroke-width:.264583px;stroke-linecap:butt;stroke-linejoin:miter;stroke-opacity:1"/><path d="m111.125 105.833 6.35 2.117V46.567L70.908 32.808c8.56 33.812 26.811 48.33 40.217 73.025z" style="fill:#7d6344;fill-opacity:1;stroke:none;stroke-width:.264583px;stroke-linecap:butt;stroke-linejoin:miter;stroke-opacity:1"/><path d="M68.792 33.337v6.88l6.35 2.116v-8.466z" style="fill:#7f6545;fill-opacity:1;stroke:none;stroke-width:.264583px;stroke-linecap:butt;stroke-linejoin:miter;stroke-opacity:1"/><path transform="matrix(-1 0 0 1 124.883 0)" d="m11.642 52.917 50.8-16.934c4.763 8.984 2.116 23.284 0 33.867-5.292 4.233 0 0 0 0z" style="fill:#7f6545;fill-opacity:1;stroke:#000;stroke-width:0;stroke-linecap:butt;stroke-linejoin:miter;stroke-miterlimit:4;stroke-dasharray:none;stroke-opacity:1"/><path transform="matrix(-1 0 0 1 124.883 0)" d="M62.442 35.983V69.85l50.8-16.933z" style="fill:#a28158;fill-opacity:1;stroke:#000;stroke-width:0;stroke-linecap:butt;stroke-linejoin:miter;stroke-miterlimit:4;stroke-dasharray:none;stroke-opacity:1"/><path d="M93.243 55.384s-27.03-2.765-28.685 3.883c-11.882-10.561-44.547 3.98-44.652 5.604L62.442 88.9z" style="fill:url(#e);fill-opacity:1;stroke:none;stroke-width:.264583px;stroke-linecap:butt;stroke-linejoin:miter;stroke-opacity:1;filter:url(#filter17725)"/><path style="fill:#606000;fill-opacity:1;stroke:none;stroke-width:.946115;stroke-linecap:round;stroke-linejoin:round;stroke-miterlimit:4;stroke-dasharray:none;stroke-opacity:1" d="m23.288 26.763-1.612-3 1.004-3.214 2.72-.595v-6.048l-2.717-.606-1.004-3.22 1.604-2.983-3.208-4.277-2.24 2.135-2.408-1.329L14.971 0l-4.534.004-.449 3.622L7.57 4.955 5.33 2.82 2.123 7.097l1.603 2.982-.993 3.221-2.73.61L0 19.953l2.735.595.994 3.215-1.611 3 3.207 4.276 2.247-2.152 2.419 1.335.446 3.633 4.534.011.454-3.643 2.408-1.336 2.245 2.149zm-7.863-6.373a5.01 3.758 90 0 1-.065.086 5.01 3.758 90 0 1-5.315 0 5.01 3.758 90 0 1 0-7.086 5.01 3.758 90 0 1 5.315 0 5.01 3.758 90 0 1 .065 7z" transform="matrix(1.39887 -.62282 .6228 1.39885 35.167 53.839)"/><path style="fill:#7f7f08;fill-opacity:1;stroke:none;stroke-width:.264584px;stroke-linecap:butt;stroke-linejoin:miter;stroke-opacity:1" d="m17.836 4.955 2.24-2.135h2.116l-2.24 2.135z" transform="matrix(1.39887 -.62282 .6228 1.39885 35.167 53.839)"/><path style="fill:#4e4e4e;fill-opacity:1;stroke:none;stroke-width:.264584px;stroke-linecap:butt;stroke-linejoin:miter;stroke-opacity:1" d="m17.838 28.902 2.24 2.135h2.116l-2.24-2.135z" transform="matrix(1.39887 -.62282 .6228 1.39885 35.167 53.839)"/><path style="fill:#8c8c00;fill-opacity:1;stroke:none;stroke-width:.264584px;stroke-linecap:butt;stroke-linejoin:miter;stroke-opacity:1" d="m7.57 4.955 2.418-1.329.45-3.622h2.116l-.45 3.622-2.418 1.329z" transform="matrix(1.39887 -.62282 .6228 1.39885 35.167 53.839)"/><path style="fill:url(#f);fill-opacity:1;stroke:none;stroke-width:.946116;stroke-linecap:round;stroke-linejoin:round;stroke-miterlimit:4;stroke-dasharray:none;stroke-opacity:1" d="m25.404 26.763-1.611-3 1.004-3.214 2.72-.595v-6.048L24.8 13.3l-1.005-3.22L25.4 7.096 22.192 2.82l-2.24 2.135-2.408-1.329L17.087 0l-4.533.004-.45 3.622-2.418 1.329-2.24-2.135L4.24 7.097l1.604 2.982L4.85 13.3l-2.73.61-.002 6.044 2.735.595.994 3.215-1.612 3 3.208 4.276 2.247-2.152 2.419 1.335.446 3.633 4.533.011.454-3.643 2.409-1.336 2.244 2.149zm-7.863-6.373a5.01 3.758 90 0 1-.064.086 5.01 3.758 90 0 1-5.315 0 5.01 3.758 90 0 1 0-7.086 5.01 3.758 90 0 1 5.315 0 5.01 3.758 90 0 1 .064 7z" transform="matrix(1.39887 -.62282 .6228 1.39885 35.167 53.839)"/><path style="fill:#4e4e4e;fill-opacity:1;stroke:none;stroke-width:.264584px;stroke-linecap:butt;stroke-linejoin:miter;stroke-opacity:1" d="M7.442 31.04H5.325l-3.207-4.277h2.116z" transform="matrix(1.39887 -.62282 .6228 1.39885 35.167 53.839)"/><path style="fill:olive;fill-opacity:1;stroke:none;stroke-width:.264584px;stroke-linecap:butt;stroke-linejoin:miter;stroke-opacity:1" d="M7.447 2.82H5.33L2.123 7.097h2.116z" transform="matrix(1.39887 -.62282 .6228 1.39885 35.167 53.839)"/><path d="M25.246 61.486s-3.166-7.092 16.408-.786c26.632 8.58 47.717-5.684 56.411-6.449 15.177-1.334 10.761 2.426 10.761 2.426l-67.551 27.99z" style="mix-blend-mode:normal;fill:url(#g);fill-opacity:1;fill-rule:evenodd;stroke:none;stroke-width:.264583px;stroke-linecap:butt;stroke-linejoin:miter;stroke-opacity:1;filter:url(#filter16448)"/><path d="M115.888 51.33v54.503l-3.176-1.058v1.587l4.763 1.588V50.27L70.379 33.868l-1.058 1.587z" style="fill:#aa875c;stroke:none;stroke-width:.264583px;stroke-linecap:butt;stroke-linejoin:miter;stroke-opacity:1;fill-opacity:1"/><path d="m62.442 124.883 50.8-16.933V52.917l-50.8 16.933c-2.117 2.117-2.117 52.917 0 55.033z" style="fill:url(#h);fill-opacity:1;stroke:#000;stroke-width:0;stroke-linecap:butt;stroke-linejoin:miter;stroke-miterlimit:4;stroke-dasharray:none;stroke-opacity:1"/><path d="M11.642 52.917v55.033l50.8 16.933V69.85z" style="fill:url(#i);fill-opacity:1;stroke:#000;stroke-width:0;stroke-linecap:butt;stroke-linejoin:miter;stroke-miterlimit:4;stroke-dasharray:none;stroke-opacity:1"/><path d="m68.792 33.337 48.683 16.934 6.35-2.117-48.683-16.933z" style="fill:#e1b37d;fill-opacity:1;stroke:none;stroke-width:.264583px;stroke-linecap:butt;stroke-linejoin:miter;stroke-opacity:1"/><path d="m62.442 35.983-50.8 16.934 50.8 16.933 50.8-16.933zm0 1.588 46.037 15.346-46.037 15.345-46.038-15.345z" style="fill:#c69b6a;fill-opacity:1;stroke:none;stroke-width:.264583px;stroke-linecap:butt;stroke-linejoin:miter;stroke-opacity:1"/><g><path transform="translate(36.512 12.17)" d="M16.404-3.175C19.963-.697 22.907-.492 25.93 0c3.81-.112 6.402-2.04 9.525-3.175L25.93-6.35z" style="fill:#6e6edf;fill-opacity:1;stroke:none;stroke-width:.264583px;stroke-linecap:butt;stroke-linejoin:miter;stroke-opacity:1"/><path transform="translate(36.512 12.17)" d="m13.23 21.696 7.937-2.646h9.525l7.937 2.646-12.7 6.879z" style="fill:#6969df;fill-opacity:1;stroke:none;stroke-width:.264583px;stroke-linecap:butt;stroke-linejoin:miter;stroke-opacity:1"/><path transform="translate(36.512 12.17)" d="M25.93 35.454c-.165-3.2-2.338-6.713 0-9.525l12.7-4.233zm0-11.641c-.003-7.938-1.395-15.576 0-23.813l9.524-3.175-3.175 24.87z" style="fill:#7272dc;fill-opacity:1;stroke:none;stroke-width:.264583px;stroke-linecap:butt;stroke-linejoin:miter;stroke-opacity:1"/><path transform="translate(36.512 12.17)" d="M25.93 23.813V0l-9.526-3.175 3.175 24.87zm0 11.641V25.93l-12.7-4.233z" style="fill:#5b5cb9;fill-opacity:1;stroke:none;stroke-width:.264583px;stroke-linecap:butt;stroke-linejoin:miter;stroke-opacity:1"/></g></svg>
