<svg width="512" height="512" version="1.1" viewBox="0 0 135.467 135.467" xmlns="http://www.w3.org/2000/svg"><defs><linearGradient id="h" x1="88.155" x2="50.52" y1="61.077" y2="71.549" gradientUnits="userSpaceOnUse"><stop stop-color="#cccc89" offset="0"/><stop stop-color="#e1e197" offset="1"/></linearGradient><filter id="i" x="-.00295851" y="-.00812967" width="1.00592" height="1.01626" color-interpolation-filters="sRGB"><feGaussianBlur stdDeviation=".104"/></filter><linearGradient id="e" x1="78.116" x2="31.887" y1="58.921" y2="74.641" gradientUnits="userSpaceOnUse"><stop stop-color="#cccc89" offset="0"/><stop stop-color="#bbbb7e" offset="1"/></linearGradient><filter id="f" x="-.00317439" y="-.00682975" width="1.00635" height="1.01366" color-interpolation-filters="sRGB"><feGaussianBlur stdDeviation=".097"/></filter><linearGradient id="j" x1="97.201" x2="41.246" y1="85.356" y2="95.187" gradientUnits="userSpaceOnUse"><stop stop-color="#c19a6b" offset="0"/><stop stop-color="#a7855c" offset="1"/></linearGradient><linearGradient id="k" x1="11.642" x2="62.442" y1="88.9" y2="88.9" gradientUnits="userSpaceOnUse"><stop stop-color="#93744f" offset="0"/><stop stop-color="#aa875c" stop-opacity=".993" offset="1"/></linearGradient><radialGradient id="g" cx="17.836" cy="7.95" r="12.7" gradientTransform="matrix(1,0,0,1.33335,0,-5.645)" gradientUnits="userSpaceOnUse"><stop stop-color="#b8b8b8" offset="0"/><stop stop-color="#909090" offset="1"/></radialGradient><filter id="a" x="-.366102" y="-.601793" width="1.7322" height="2.20359" color-interpolation-filters="sRGB"><feGaussianBlur stdDeviation="12.13288"/></filter></defs><g id="c"><path d="M117.475 107.95l6.35-2.117V48.154c-3.175.53-4.777-3.279-6.35.53 0 0-4.233 50.8 0 59.266z" fill="#c19a6b"/><path d="M111.125 105.833l6.35 2.117V46.567L70.908 32.808c.41 48.89 26.811 48.33 40.217 73.025z" fill="#7d6344"/><path d="M68.792 33.337V66.94l6.35 2.116V33.867z" fill="#886d49"/><path d="M115.888 51.33v54.503l-3.176-1.058v1.587l4.763 1.588V50.27L70.379 33.868l-1.058 1.587z" fill="#aa875c"/><path d="m68.792 33.337 48.683 16.934 6.35-2.117-48.683-16.933z" fill="#e1b37d"/></g><g id="d"><g id="l"><path d="m113.241 70.909-50.8-16.934c-4.763 8.984-2.116 23.284 0 33.867 5.292 4.233 0 0 0 0z" fill="#7f6545"/><path d="m62.441 53.975v33.867l-50.8-16.933z" fill="#a28158"/><path d="m93.243 73.376s-27.03-2.765-28.685 3.883c-11.882-10.561-44.547 3.98-44.652 5.604l42.536 24.029z" fill="url(#e)" filter="url(#f)"/><path d="M85.171 95.373l-4.534-3.512-.657-5.634 3.777-2.779-4.144-9.306-4.595.93-3.752-4.27.424-5.687-7.865-4.384-1.984 4.82-4.616-.395-3.187-5.267-6.973 3.112 1.79 5.881-2.81 3.702-4.91-1.75-2.005 8.777 4.511 3.49.678 5.638-3.784 2.808 4.138 9.303 4.616-.958 3.731 4.265-.424 5.72 7.865 4.383 1.984-4.851 4.636.398 3.176 5.284 6.983-3.09-1.797-5.916 2.79-3.705 4.927 1.768zm-16.465-4.42a8.44 6.33 66 0 1-.04.177 8.44 6.33 66 0 1-8.178 3.641 8.44 6.33 66 0 1-4.855-10.903 8.44 6.33 66 0 1 8.178-3.641 8.44 6.33 66 0 1 4.895 10.726z" fill="#6e6e6e"/><path d="m61.841 65.55 1.984-4.819 3.257-1.45-1.984 4.82z" fill="#808080"/><path d="m78.251 102.397 4.909 1.751 3.257-1.45-4.909-1.75z" fill="#4e4e4e"/><path d="m46.045 72.584 2.81-3.702-1.79-5.881 3.257-1.45 1.79 5.881-2.81 3.702z" fill="#828282"/><path transform="rotate(-24 180.505 -37.855) scale(1.68437 1.68436)" d="M25.404 26.763l-1.611-3 1.004-3.214 2.72-.595v-6.048L24.8 13.3l-1.005-3.22L25.4 7.096 22.192 2.82l-2.24 2.135-2.408-1.329L17.087 0l-4.533.004-.45 3.622-2.418 1.329-2.24-2.135L4.24 7.097l1.604 2.982L4.85 13.3l-2.73.61-.002 6.044 2.735.595.994 3.215-1.612 3 3.208 4.276 2.247-2.152 2.419 1.335.446 3.633 4.533.011.454-3.643 2.409-1.336 2.244 2.149zm-7.863-6.373a5.01 3.758 90 0 1-.064.086 5.01 3.758 90 0 1-5.315 0 5.01 3.758 90 0 1 0-7.086 5.01 3.758 90 0 1 5.315 0 5.01 3.758 90 0 1 .064 7z" fill="url(#g)"/><path d="m63.718 112.81-3.257 1.45-7.865-4.383 3.257-1.45z" fill="#4e4e4e"/><path d="m44.393 69.383-3.257 1.45-2.006 8.778 3.257-1.45z" fill="#7c7c7c"/><path d="M25.246 79.477s-3.166-7.091 16.408-.785c26.632 8.58 47.717-5.684 56.411-6.449 15.177-1.334 10.761 2.426 10.761 2.426l-67.551 27.99z" fill="url(#h)" fill-rule="evenodd" filter="url(#i)" style="mix-blend-mode:normal"/><path d="m62.442 124.883 50.8-16.933v-37.041c-17.622 4.84084-34.5097 10.5384-50.8 16.933-2.117 2.117-2.117 34.925 0 37.041z" fill="url(#j)"/><path d="m11.642 70.909v37.041l50.8 16.933v-37.041c-15.9973-6.51348-32.8699-12.2142-50.8-16.933z" fill="url(#k)"/><path d="m62.442 53.975-50.8 16.934 50.8 16.933 50.8-16.933zm0 1.588 46.037 15.346-46.037 15.345-46.038-15.345z" fill="#c69b6a"/></g><path d="m71.9627 89.5029-23.1077-20.6209 20.018-27.766 59.5198 12.448z" fill-opacity=".181223" filter="url(#a)" style="mix-blend-mode:normal"/></g><path d="M49.583 11.112c4.805 3.346 8.78 3.622 12.86 4.286 5.144-.15 8.643-2.754 12.86-4.286l-12.86-4.286z" fill="#7373e9"/><path d="m45.298 44.688 10.715-3.572h12.86l10.714 3.572-17.145 9.287z" fill="#6969df"/><path d="M62.443 63.261c-.222-4.32-3.156-9.062 0-12.858l17.145-5.715zm0-15.715c-.004-10.716-1.883-21.028 0-32.148l12.858-4.286-4.286 33.575z" fill="#7a7aeb"/><path d="M62.443 47.546V15.398l-12.86-4.286 4.287 33.575zm0 15.715V50.404l-17.145-5.715z" fill="#5e5fbf"/></svg>
