<svg width="512" height="512" viewBox="0 0 135.467 135.467" xmlns="http://www.w3.org/2000/svg"><path style="fill:#c19a6b;fill-opacity:1;stroke:none;stroke-width:.264583px;stroke-linecap:butt;stroke-linejoin:miter;stroke-opacity:1" d="m117.475 107.95 6.35-2.117V48.154c-3.175.53-4.777-3.279-6.35.53 0 0-4.233 50.8 0 59.266z"/><path style="fill:#8d704d;fill-opacity:1;stroke:none;stroke-width:.264583px;stroke-linecap:butt;stroke-linejoin:miter;stroke-opacity:1" d="m111.125 105.833 6.35 2.117V46.567L70.908 32.808c8.56 33.812 26.811 48.33 40.217 73.025z"/><path style="fill:#7f6545;fill-opacity:1;stroke:none;stroke-width:.264583px;stroke-linecap:butt;stroke-linejoin:miter;stroke-opacity:1" d="M68.792 33.337v6.88l6.35 2.116v-8.466z"/><path style="fill:#7f6545;fill-opacity:1;stroke:#000;stroke-width:0;stroke-linecap:butt;stroke-linejoin:miter;stroke-miterlimit:4;stroke-dasharray:none;stroke-opacity:1" d="m11.642 52.917 50.8-16.934c4.763 8.984 2.116 23.284 0 33.867-5.292 4.233 0 0 0 0z" transform="matrix(-1 0 0 1 124.883 0)"/><path style="fill:#a28158;fill-opacity:1;stroke:#000;stroke-width:0;stroke-linecap:butt;stroke-linejoin:miter;stroke-miterlimit:4;stroke-dasharray:none;stroke-opacity:1" d="M62.442 35.983V69.85l50.8-16.933z" transform="matrix(-1 0 0 1 124.883 0)"/><path style="fill:#a6a670;fill-opacity:1;stroke:none;stroke-width:.264583px;stroke-linecap:butt;stroke-linejoin:miter;stroke-opacity:1" d="M89.958 63.5s-12.7-6.35-25.4-4.233c-12.7 2.116-42.333 0-42.333 0L62.442 88.9z"/><path style="fill:#999;fill-opacity:1;stroke:#000001;stroke-width:0;stroke-linecap:round;stroke-linejoin:round;stroke-miterlimit:4;stroke-dasharray:none;stroke-opacity:1" d="m75.687 65.005-.873-3.252 2.428-2.606-3.567-4.644-3.137 1.677-2.923-1.695-.12-3.554-5.81-.765-1.03 3.402-3.258.882-2.614-2.439-4.648 3.562 1.693 3.154-1.689 2.914c-34.907 20.097 52.772 16.502 25.548 3.364zm-18.055 1.17a4.854 4.854 0 1 1 9.625 1.267c-2.593 6.738-10.147 3.912-9.625-1.267z"/><path style="fill:#cccc89;fill-opacity:1;stroke:none;stroke-width:.264583px;stroke-linecap:butt;stroke-linejoin:miter;stroke-opacity:1" d="M22.225 63.5s27.517-4.233 44.45 0c16.933 4.233 16.933-8.467 25.4-6.35 8.467 2.117 12.7 6.35 12.7 6.35l-63.5 21.167z"/><path style="fill:#aa875c;stroke:none;stroke-width:.264583px;stroke-linecap:butt;stroke-linejoin:miter;stroke-opacity:1;fill-opacity:1" d="M115.888 51.33v54.503l-3.176-1.058v1.587l4.763 1.588V50.27L70.379 33.868l-1.058 1.587z"/><path style="fill:#c19a6b;fill-opacity:1;stroke:#000;stroke-width:0;stroke-linecap:butt;stroke-linejoin:miter;stroke-miterlimit:4;stroke-dasharray:none;stroke-opacity:1" d="m62.442 124.883 50.8-16.933V52.917l-50.8 16.933c-2.117 2.117-2.117 52.917 0 55.033z"/><path style="fill:#aa875c;fill-opacity:1;stroke:#000;stroke-width:0;stroke-linecap:butt;stroke-linejoin:miter;stroke-miterlimit:4;stroke-dasharray:none;stroke-opacity:1" d="M11.642 52.917v55.033l50.8 16.933V69.85z"/><path style="fill:#e1b37d;fill-opacity:1;stroke:none;stroke-width:.264583px;stroke-linecap:butt;stroke-linejoin:miter;stroke-opacity:1" d="m68.792 33.337 48.683 16.934 6.35-2.117-48.683-16.933z"/><path style="fill:#c69b6a;fill-opacity:1;stroke:none;stroke-width:.264583px;stroke-linecap:butt;stroke-linejoin:miter;stroke-opacity:1" d="m62.442 35.983-50.8 16.934 50.8 16.933 50.8-16.933zm0 1.588 46.037 15.346-46.037 15.345-46.038-15.345z"/><g><path style="fill:#6e6edf;fill-opacity:1;stroke:none;stroke-width:.264583px;stroke-linecap:butt;stroke-linejoin:miter;stroke-opacity:1" d="M16.404-3.175C19.963-.697 22.907-.492 25.93 0c3.81-.112 6.402-2.04 9.525-3.175L25.93-6.35z" transform="translate(36.513 12.17)"/><path style="fill:#6969df;fill-opacity:1;stroke:none;stroke-width:.264583px;stroke-linecap:butt;stroke-linejoin:miter;stroke-opacity:1" d="m13.23 21.696 7.937-2.646h9.525l7.937 2.646-12.7 6.879z" transform="translate(36.513 12.17)"/><path style="fill:#7272dc;fill-opacity:1;stroke:none;stroke-width:.264583px;stroke-linecap:butt;stroke-linejoin:miter;stroke-opacity:1" d="M25.93 35.454c-.165-3.2-2.338-6.713 0-9.525l12.7-4.233zM25.93 23.813c-.003-7.938-1.395-15.576 0-23.813l9.524-3.175-3.175 24.87z" transform="translate(36.513 12.17)"/><path style="fill:#5b5cb9;fill-opacity:1;stroke:none;stroke-width:.264583px;stroke-linecap:butt;stroke-linejoin:miter;stroke-opacity:1" d="M25.93 23.813V0l-9.526-3.175 3.175 24.87zM25.93 35.454V25.93l-12.7-4.233z" transform="translate(36.513 12.17)"/></g></svg>
