<svg viewBox="0 0 135.467 135.467" height="512" width="512" xmlns:xlink="http://www.w3.org/1999/xlink" xmlns="http://www.w3.org/2000/svg"><defs><linearGradient id="d"><stop offset="0" stop-color="#b5b500"/><stop offset="1" stop-color="#9c8b00"/></linearGradient><linearGradient id="c"><stop offset="0" stop-color="#93744f"/><stop offset="1" stop-color="#aa875c" stop-opacity=".993"/></linearGradient><linearGradient id="b"><stop offset="0" stop-color="#c19a6b"/><stop offset="1" stop-color="#a7855c"/></linearGradient><linearGradient id="a"><stop offset="0" stop-color="#cccc89"/><stop offset="1" stop-color="#abab73"/></linearGradient><linearGradient xlink:href="#a" id="h" x1="88.155" y1="61.077" x2="50.52" y2="71.549" gradientUnits="userSpaceOnUse"/><filter id="i" x="-.003" y="-.008" width="1.006" height="1.016" color-interpolation-filters="sRGB"><feGaussianBlur stdDeviation=".104"/></filter><linearGradient xlink:href="#a" id="e" x1="78.116" y1="58.921" x2="31.887" y2="74.641" gradientUnits="userSpaceOnUse"/><filter id="f" x="-.003" y="-.007" width="1.006" height="1.014" color-interpolation-filters="sRGB"><feGaussianBlur stdDeviation=".097"/></filter><linearGradient xlink:href="#b" id="j" x1="97.201" y1="85.356" x2="41.246" y2="95.187" gradientUnits="userSpaceOnUse"/><linearGradient xlink:href="#c" id="k" x1="11.642" y1="88.9" x2="62.442" y2="88.9" gradientUnits="userSpaceOnUse"/><radialGradient xlink:href="#d" id="g" cx="17.836" cy="7.95" fx="17.836" fy="7.95" r="12.7" gradientTransform="matrix(1 0 0 1.33335 0 -5.645)" gradientUnits="userSpaceOnUse"/></defs><path d="M117.475 107.95l6.35-2.117V48.154c-3.175.53-4.777-3.279-6.35.53 0 0-4.233 50.8 0 59.266z" fill="#c19a6b"/><path d="M111.125 105.833l6.35 2.117V46.567L70.908 32.808c8.56 33.812 26.811 48.33 40.217 73.025z" fill="#7d6344"/><path d="M68.792 33.337v6.88l6.35 2.116v-8.466z" fill="#7f6545"/><path d="M113.241 52.917l-50.8-16.934c-4.763 8.984-2.116 23.284 0 33.867 5.292 4.233 0 0 0 0z" fill="#7f6545"/><path d="M62.441 35.983V69.85l-50.8-16.933z" fill="#a28158"/><path d="M93.243 55.384s-27.03-2.765-28.685 3.883c-11.882-10.561-44.547 3.98-44.652 5.604L62.442 88.9z" fill="url(#e)" filter="url(#f)"/><path d="M84.411 76.773L80.29 73.58l-.597-5.122 3.433-2.526-3.766-8.46-4.178.845-3.411-3.881.386-5.171-7.15-3.985-1.804 4.381-4.196-.358-2.897-4.788-6.34 2.828 1.628 5.347-2.556 3.365-4.462-1.591-1.823 7.98 4.1 3.173.617 5.125-3.44 2.552 3.761 8.457 4.197-.87 3.392 3.877-.386 5.2 7.15 3.984 1.804-4.41 4.215.362 2.887 4.804L77.2 91.89l-1.634-5.38 2.537-3.368 4.479 1.608zm-14.968-4.019a7.672 5.754 66 0 1-.037.162 7.672 5.754 66 0 1-7.435 3.31 7.672 5.754 66 0 1-4.413-9.913 7.672 5.754 66 0 1 7.435-3.31 7.672 5.754 66 0 1 4.45 9.751z" fill="#606000"/><path d="M63.202 49.661l1.803-4.38 2.961-1.319-1.803 4.381z" fill="#7f7f08"/><path d="M78.12 83.158l4.463 1.592 2.96-1.318-4.462-1.592z" fill="#4e4e4e"/><path d="M48.841 56.055l2.556-3.365-1.628-5.347 2.96-1.318 1.63 5.347-2.557 3.365z" fill="#8c8c00"/><path d="M25.404 26.763l-1.611-3 1.004-3.214 2.72-.595v-6.048L24.8 13.3l-1.005-3.22L25.4 7.096 22.192 2.82l-2.24 2.135-2.408-1.329L17.087 0l-4.533.004-.45 3.622-2.418 1.329-2.24-2.135L4.24 7.097l1.604 2.982L4.85 13.3l-2.73.61-.002 6.044 2.735.595.994 3.215-1.612 3 3.208 4.276 2.247-2.152 2.419 1.335.446 3.633 4.533.011.454-3.643 2.409-1.336 2.244 2.149zm-7.863-6.373a5.01 3.758 90 0 1-.064.086 5.01 3.758 90 0 1-5.315 0 5.01 3.758 90 0 1 0-7.086 5.01 3.758 90 0 1 5.315 0 5.01 3.758 90 0 1 .064 7z" fill="url(#g)" transform="matrix(1.39887 -.62282 .6228 1.39885 35.167 53.839)"/><path d="M64.908 92.624l-2.96 1.318-7.15-3.984 2.96-1.318z" fill="#4e4e4e"/><path d="M47.34 53.145l-2.96 1.319-1.824 7.98 2.96-1.319z" fill="olive"/><path d="M25.246 61.486s-3.166-7.092 16.408-.786c26.632 8.58 47.717-5.684 56.411-6.449 15.177-1.334 10.761 2.426 10.761 2.426l-67.551 27.99z" style="mix-blend-mode:normal" fill="url(#h)" fill-rule="evenodd" filter="url(#i)"/><path d="M115.888 51.33v54.503l-3.176-1.058v1.587l4.763 1.588V50.27L70.379 33.868l-1.058 1.587z" fill="#aa875c"/><path d="M62.442 124.883l50.8-16.933V52.917l-50.8 16.933c-2.117 2.117-2.117 52.917 0 55.033z" fill="url(#j)"/><path d="M11.642 52.917v55.033l50.8 16.933V69.85z" fill="url(#k)"/><path d="M68.792 33.337l48.683 16.934 6.35-2.117-48.683-16.933z" fill="#e1b37d"/><path d="M62.442 35.983l-50.8 16.934 50.8 16.933 50.8-16.933zm0 1.588l46.037 15.346-46.037 15.345-46.038-15.345z" fill="#c69b6a"/><g><path d="M52.916 8.996c3.559 2.478 6.503 2.683 9.526 3.175 3.81-.112 6.402-2.04 9.525-3.175L62.442 5.82z" fill="#6e6edf"/><path d="M49.742 33.867l7.937-2.646h9.525l7.937 2.646-12.7 6.879z" fill="#6969df"/><path d="M62.442 47.625c-.165-3.2-2.338-6.713 0-9.525l12.7-4.233zm0-11.641c-.003-7.938-1.395-15.576 0-23.813l9.524-3.175-3.175 24.87z" fill="#7272dc"/><path d="M62.442 35.984V12.17l-9.526-3.175 3.175 24.87zm0 11.64v-9.523l-12.7-4.233z" fill="#5b5cb9"/></g></svg>
