<svg viewBox="0 0 135.467 135.467" height="512" width="512" xmlns:xlink="http://www.w3.org/1999/xlink" xmlns="http://www.w3.org/2000/svg"><defs><linearGradient id="c"><stop offset="0" stop-color="#93744f"/><stop offset="1" stop-color="#aa875c" stop-opacity=".993"/></linearGradient><linearGradient id="b"><stop offset="0" stop-color="#c19a6b"/><stop offset="1" stop-color="#a7855c"/></linearGradient><linearGradient id="a"><stop offset="0" stop-color="#cccc89"/><stop offset="1" stop-color="#abab73"/></linearGradient><linearGradient xlink:href="#a" id="f" x1="88.155" y1="61.077" x2="50.52" y2="71.549" gradientUnits="userSpaceOnUse"/><filter id="g" x="-.005" y="-.013" width="1.01" height="1.027" color-interpolation-filters="sRGB"><feGaussianBlur stdDeviation=".172"/></filter><linearGradient xlink:href="#a" id="d" x1="78.116" y1="58.921" x2="31.887" y2="74.641" gradientUnits="userSpaceOnUse"/><filter id="e" x="-.008" y="-.017" width="1.016" height="1.034" color-interpolation-filters="sRGB"><feGaussianBlur stdDeviation=".244"/></filter><linearGradient xlink:href="#b" id="h" x1="97.201" y1="85.356" x2="41.246" y2="95.187" gradientUnits="userSpaceOnUse"/><linearGradient xlink:href="#c" id="i" x1="11.642" y1="88.9" x2="62.442" y2="88.9" gradientUnits="userSpaceOnUse"/></defs><path d="M117.475 107.95l6.35-2.117V48.154c-3.175.53-4.777-3.279-6.35.53 0 0-4.233 50.8 0 59.266z" fill="#c19a6b"/><path d="M111.125 105.833l6.35 2.117V46.567L70.908 32.808c8.56 33.812 26.811 48.33 40.217 73.025z" fill="#8d704d"/><path d="M68.792 33.337v6.88l6.35 2.116v-8.466z" fill="#7f6545"/><path d="M113.241 52.917l-50.8-16.934c-4.763 8.984-2.116 23.284 0 33.867 5.292 4.233 0 0 0 0z" fill="#7f6545"/><path d="M62.441 35.983V69.85l-50.8-16.933z" fill="#a28158"/><path d="M93.243 55.384s-27.03-2.765-28.685 3.883c-11.882-10.561-44.547 3.98-44.652 5.604L62.442 88.9z" fill="url(#d)" filter="url(#e)"/><path d="M50.792 66.168l.325-4.387-2.774-3.212 2.714-6.49 3.08-.31.232 2.222 2.564-2.527-.455-4.713 5.513-1.578 3.08-.309-1.534 4.71 3.302.85 2.144-3.482 3.08-.31.866 8.907 2.106 3.691c37.092 23.189-48.541 26.97-24.243 6.938zm17.703-.21c-1.85-8.408-10.983-5.795-9.133 2.613 3.598 8.662 10.472 4.188 9.133-2.613z" fill="#999"/><path d="M56.933 51.464l3.08-.309-2.563 2.527-3.08.31z" fill="#a4a4a4"/><path d="M53.873 65.859l.324-4.388-2.774-3.21 2.714-6.492 3.313 1.913.988-.974 1.575-1.553-.455-4.713-3.08.309 5.513-1.578 3.08-.309 1.546 4.4 3.303.85 2.144-3.481 5.08 4.26-1.135 4.337 2.107 3.69c37.091 23.19-48.542 26.97-24.243 6.939zm17.702-.21c-1.85-8.409-10.983-5.795-9.133 2.613 3.598 8.662 10.472 4.188 9.133-2.613z" fill="#b2b2b2"/><path d="M48.343 58.57l3.08-.31 2.774 3.211-.324 4.388-3.08.309.324-4.387z" fill="#8f8f8f"/><path d="M25.246 61.486s-3.166-7.092 16.408-.786c26.632 8.58 47.717-5.684 56.411-6.449 15.177-1.334 10.761 2.426 10.761 2.426l-67.551 27.99z" style="mix-blend-mode:normal" fill="url(#f)" fill-rule="evenodd" filter="url(#g)"/><path d="M115.888 51.33v54.503l-3.176-1.058v1.587l4.763 1.588V50.27L70.379 33.868l-1.058 1.587z" fill="#aa875c"/><path d="M62.442 124.883l50.8-16.933V52.917l-50.8 16.933c-2.117 2.117-2.117 52.917 0 55.033z" fill="url(#h)"/><path d="M11.642 52.917v55.033l50.8 16.933V69.85z" fill="url(#i)"/><path d="M68.792 33.337l48.683 16.934 6.35-2.117-48.683-16.933z" fill="#e1b37d"/><path d="M62.442 35.983l-50.8 16.934 50.8 16.933 50.8-16.933zm0 1.588l46.037 15.346-46.037 15.345-46.038-15.345z" fill="#c69b6a"/><g><path d="M52.917 8.995c3.559 2.478 6.503 2.683 9.526 3.175 3.81-.112 6.402-2.04 9.525-3.175L62.443 5.82z" fill="#6e6edf"/><path d="M49.743 33.866l7.937-2.646h9.525l7.937 2.646-12.7 6.879z" fill="#6969df"/><path d="M62.443 47.624c-.165-3.2-2.338-6.713 0-9.525l12.7-4.233zm0-11.641c-.003-7.938-1.395-15.576 0-23.813l9.524-3.175-3.175 24.87z" fill="#7272dc"/><path d="M62.443 35.983V12.17l-9.526-3.175 3.175 24.87zm0 11.641V38.1l-12.7-4.233z" fill="#5b5cb9"/></g></svg>
