<svg width="512" height="512" viewBox="0 0 135.467 135.467" xmlns="http://www.w3.org/2000/svg"><path style="fill:#c19a6b;fill-opacity:1;stroke:none;stroke-width:.264583px;stroke-linecap:butt;stroke-linejoin:miter;stroke-opacity:1" d="m117.475 107.95 6.35-2.117V48.154c-3.175.53-4.777-3.279-6.35.53 0 0-4.233 50.8 0 59.266z"/><path style="fill:#7f6545;fill-opacity:1;stroke:#000;stroke-width:0;stroke-linecap:butt;stroke-linejoin:miter;stroke-miterlimit:4;stroke-dasharray:none;stroke-opacity:1" d="m11.642 52.917 50.8-16.934c4.763 8.984 2.116 23.284 0 33.867-12.034 7.217 32.075-1.23 0 0-12.818-1.806-32.77-3.954-50.8-16.933z"/><path style="fill:#8d704d;fill-opacity:1;stroke:none;stroke-width:.264583px;stroke-linecap:butt;stroke-linejoin:miter;stroke-opacity:1" d="m111.125 105.833 6.35 2.117V46.567L70.908 32.808c8.56 33.812 26.811 48.33 40.217 73.025z"/><path style="fill:#7f6545;fill-opacity:1;stroke:none;stroke-width:.264583px;stroke-linecap:butt;stroke-linejoin:miter;stroke-opacity:1" d="M68.792 33.337v6.88l6.35 2.116v-8.466z"/><path style="fill:#a28158;fill-opacity:1;stroke:#000;stroke-width:0;stroke-linecap:butt;stroke-linejoin:miter;stroke-miterlimit:4;stroke-dasharray:none;stroke-opacity:1" d="M62.442 35.983V69.85s46.566-8.467 50.8-16.933z"/><path style="fill:#a6a670;fill-opacity:1;stroke:none;stroke-width:.264583px;stroke-linecap:butt;stroke-linejoin:miter;stroke-opacity:1" d="M89.958 63.5s-12.7-6.35-25.4-4.233c-12.7 2.116-42.333 0-42.333 0L62.442 88.9z"/><path style="fill:#999;fill-opacity:1;stroke:#000001;stroke-width:0;stroke-linecap:round;stroke-linejoin:round;stroke-miterlimit:4;stroke-dasharray:none;stroke-opacity:1" d="m63.213 83.453 1.038-3.42 3.26-.867 2.596 2.436 4.649-3.567-1.671-3.141 1.686-2.93 3.553-.115.765-5.809-3.402-1.035-.873-3.252 2.428-2.606-3.567-4.644-3.137 1.677-2.923-1.695-.12-3.554-5.81-.765-1.03 3.402-3.258.882-2.614-2.439-4.648 3.562 1.693 3.154-1.689 2.914-3.572.118-.765 5.809 3.421 1.034.875 3.266-2.44 2.6 3.556 4.651 3.157-1.683 2.92 1.68.114 3.568zM61.93 71.637a4.854 4.854 56.842 0 1-.118-.016 4.854 4.854 56.842 0 1-4.18-5.446 4.854 4.854 56.842 0 1 5.447-4.179 4.854 4.854 56.842 0 1 4.179 5.446 4.854 4.854 56.842 0 1-5.329 4.195z"/><path style="fill:#cccc89;fill-opacity:1;stroke:none;stroke-width:.264583px;stroke-linecap:butt;stroke-linejoin:miter;stroke-opacity:1" d="M22.225 63.5s27.517-4.233 44.45 0c16.933 4.233 16.933-8.467 25.4-6.35 8.467 2.117 12.7 6.35 12.7 6.35l-63.5 21.167z"/><path style="fill:#c19a6b;fill-opacity:1;stroke:#000;stroke-width:0;stroke-linecap:butt;stroke-linejoin:miter;stroke-miterlimit:4;stroke-dasharray:none;stroke-opacity:1" d="m62.442 124.883 50.8-16.933V52.917l-50.8 16.933c-2.117 2.117-2.117 52.917 0 55.033z"/><path style="fill:#aa875c;fill-opacity:1;stroke:#000;stroke-width:0;stroke-linecap:butt;stroke-linejoin:miter;stroke-miterlimit:4;stroke-dasharray:none;stroke-opacity:1" d="M11.642 52.917v55.033l50.8 16.933V69.85z"/><path style="fill:#e1b37d;fill-opacity:1;stroke:none;stroke-width:.264583px;stroke-linecap:butt;stroke-linejoin:miter;stroke-opacity:1" d="m68.792 33.337 48.683 16.934 6.35-2.117-48.683-16.933z"/><path style="fill:#4885ee;fill-opacity:1;stroke:#000;stroke-width:0;stroke-linecap:butt;stroke-linejoin:miter;stroke-miterlimit:4;stroke-dasharray:none;stroke-opacity:1" d="m62.442 47.096-12.7-12.7h6.35l-2.117-25.93h16.933l-2.116 25.93h6.35z"/></svg>
